<svg aria-hidden="true" style="position: absolute; width: 0; height: 0; overflow: hidden;" version="1.1" xmlns="http://www.w3.org/2000/svg" xmlns:xlink="http://www.w3.org/1999/xlink">
<defs>
<symbol id="icon-monitor" viewBox="0 0 32 32">
<title>monitor</title>
<path d="M17 24.938h-3v1.562l-3 0.5v1h8.938v-0.938l-2.938-0.562v-1.562zM27 4h-23c-1.105 0-2 0.895-2 2v14c0 1.104 0.895 2 2 2h23c1.105 0 2-0.896 2-2v-14c0-1.105-0.895-2-2-2zM15.375 20.5c-0.552 0-1-0.448-1-1 0-0.553 0.448-1 1-1 0.553 0 1 0.447 1 1 0 0.552-0.448 1-1 1zM27 17h-23v-11h23v11z"></path>
</symbol>
<symbol id="icon-megaphone" viewBox="0 0 32 32">
<title>megaphone</title>
<path d="M28.075 18.121v7.896c0 0.552-0.312 0.999-0.998 0.999-0.166 0-0.577-0.354-1.082-0.887v-21.194c0.505-0.533 0.916-0.887 1.082-0.887 0.748 0 0.998 0.447 0.998 0.998v8.096c1.353 0.038 2.613 1.135 2.613 2.489 0 1.355-1.26 2.452-2.613 2.49zM12.015 20.046c0.062 0 0-9.029 0-9.029 6.857 0 10.922-3.010 13.064-5.074v19.177c-2.142-2.063-6.207-5.074-13.064-5.074zM8.021 27.952l-1.997-7.927h-1.998c0 0-0.594-1.348-0.864-2.996-0.509 0-0.954 0-1.134 0-0.551 0-0.998-0.447-0.998-0.999v-0.998c0-0.552 0.447-0.999 0.998-0.999 0.18 0 0.625 0 1.134 0 0.271-1.648 0.864-2.995 0.864-2.995h6.99v8.987h-1.997l0.252 0.998h0.997l0.499 1.998h-0.994l1.243 4.931h-2.995z"></path>
</symbol>
<symbol id="icon-megaphone1" viewBox="0 0 32 32">
<title>megaphone1</title>
<path d="M28.5 27c-0.828 0-1.5-0.672-1.5-1.5v-18c0-0.828 0.672-1.5 1.5-1.5s1.5 0.672 1.5 1.5v18c0 0.828-0.672 1.5-1.5 1.5zM21 25c0 1.104-0.896 2-2 2h-9c-1.104 0-2-0.896-2-2v-3.959l-3.991-0.888v-7.229l22.024-4.853v16.984l-5.033-1.119v1.064zM20 23.713l-11-2.449v3.736c0 0.552 0.448 1 1 1h9c0.553 0 1-0.448 1-1v-1.287zM2 21c-0.552 0-1-0.448-1-1v-7c0-0.553 0.448-1 1-1s1 0.447 1 1v7c0 0.552-0.448 1-1 1z"></path>
</symbol>
<symbol id="icon-volume" viewBox="0 0 32 32">
<title>volume</title>
<path d="M23.325 28.934l-8.38-5.84v-13.251l8.38-5.777c1.105 0 2.689 0.836 2.689 1.867v21.133c0.001 1.032-1.583 1.868-2.689 1.868zM14.013 22.898h-6.027c-1.105 0-2-1.322-2-2.354v-8.090c0-1.030 0.896-2.495 2-2.495h6.027v12.939z"></path>
</symbol>
<symbol id="icon-justice" viewBox="0 0 32 32">
<title>justice</title>
<path d="M24.064 6.583l-3.773 8.375h-1.098l4.024-8.916h-6.213v20.771c1.28 0.047 7.813 2.167 7.813 2.167v1.020h-17.56v-1.089c0 0 6.678-2.099 7.684-2.099v-20.77h-6.015l4.025 8.916h-1.098l-3.773-8.375-3.773 8.375h-1.098l4.048-8.966v-1.034h6.754c0-1.353 0.907-2.458 1.965-2.458 1.119 0 1.965 1.168 1.965 2.458h6.878v0.887l4.116 9.113h-1.098l-3.773-8.375zM13.020 15.979c0 2.693-1.868 5.282-4.939 5.282-3.002 0-4.939-2.589-4.939-5.282-0.001 0.004 9.878 0.004 9.878 0zM19.262 15.979c0 0.005 9.879 0.005 9.879 0 0 2.693-1.868 5.282-4.939 5.282-3.003 0-4.94-2.589-4.94-5.282z"></path>
</symbol>
<symbol id="icon-envelope" viewBox="0 0 32 32">
<title>envelope</title>
<path d="M16.015 18.861l-4.072-3.343-8.862 10.463h25.876l-8.863-10.567-4.079 3.447zM29.926 6.019h-27.815l13.908 11.698 13.907-11.698zM20.705 14.887l9.291 11.084v-18.952l-9.291 7.868zM2.004 7.019v18.952l9.291-11.084-9.291-7.868z"></path>
</symbol>
<symbol id="icon-paperplane" viewBox="0 0 32 32">
<title>paperplane</title>
<path d="M3.363 4.414l4.875 19.348 9.467-3.018-8.448-10.298 10.902 9.56 8.853-2.77-25.649-12.822zM18.004 27.586v-5.324l-3.116 0.926 3.116 4.398z"></path>
</symbol>
<symbol id="icon-queue_music" viewBox="0 0 24 24">
<title>queue_music</title>
<path d="M17.016 6h4.969v2.016h-3v9q0 1.219-0.891 2.109t-2.109 0.891-2.109-0.891-0.891-2.109 0.891-2.109 2.109-0.891q0.375 0 1.031 0.188v-8.203zM3 15.984v-1.969h8.016v1.969h-8.016zM15 9.984v2.016h-12v-2.016h12zM15 6v2.016h-12v-2.016h12z"></path>
</symbol>
<symbol id="icon-mail_outline" viewBox="0 0 24 24">
<title>mail_outline</title>
<path d="M12 11.016l8.016-5.016h-16.031zM20.016 18v-9.984l-8.016 4.969-8.016-4.969v9.984h16.031zM20.016 3.984q0.797 0 1.383 0.609t0.586 1.406v12q0 0.797-0.586 1.406t-1.383 0.609h-16.031q-0.797 0-1.383-0.609t-0.586-1.406v-12q0-0.797 0.586-1.406t1.383-0.609h16.031z"></path>
</symbol>
<symbol id="icon-toys" viewBox="0 0 24 24">
<title>toys</title>
<path d="M12 12q0 2.25-1.617 3.867t-3.867 1.617-3.891-1.617-1.641-3.867h11.016zM12 12q-2.25 0-3.867-1.617t-1.617-3.867 1.617-3.891 3.867-1.641v11.016zM12 12q2.25 0 3.867 1.617t1.617 3.867-1.617 3.891-3.867 1.641v-11.016zM12 12q0-2.25 1.617-3.867t3.867-1.617 3.891 1.617 1.641 3.867h-11.016z"></path>
</symbol>
<symbol id="icon-compass_calibration" viewBox="0 0 24 24">
<title>compass_calibration</title>
<path d="M12 10.078q-1.219 0-2.695 0.609t-2.32 1.453l-4.969-4.969q4.172-4.172 9.984-4.172 5.766 0 9.984 4.125l-4.969 5.016q-2.063-2.063-5.016-2.063zM8.016 17.016q0-1.641 1.172-2.836t2.813-1.195 2.813 1.195 1.172 2.836-1.172 2.813-2.813 1.172-2.813-1.172-1.172-2.813z"></path>
</symbol>
<symbol id="icon-pets" viewBox="0 0 24 24">
<title>pets</title>
<path d="M17.344 14.859l0.797 0.797t0.398 0.422 0.375 0.445 0.352 0.445 0.305 0.469 0.234 0.516 0.141 0.539 0.047 0.563-0.023 0.586q-0.516 1.969-2.344 2.344-0.328 0.047-2.273-0.188t-3.258-0.234h-0.188q-1.313 0-3.258 0.234t-2.273 0.188q-1.828-0.375-2.344-2.344-0.141-0.938 0.328-1.922t0.867-1.406 1.43-1.453q0.469-0.516 1.242-1.453t1.242-1.453q0.844-1.031 1.734-1.313 0.188-0.094 0.328-0.094 0.281-0.047 0.797-0.047 0.563 0 0.797 0.047 0.141 0 0.328 0.094 0.891 0.281 1.734 1.313 0.422 0.516 1.219 1.453t1.266 1.453zM17.016 9.516q0-1.031 0.727-1.781t1.758-0.75 1.758 0.75 0.727 1.781-0.727 1.758-1.758 0.727-1.758-0.727-0.727-1.758zM12.516 5.484q0-1.031 0.727-1.758t1.758-0.727 1.758 0.727 0.727 1.758-0.727 1.781-1.758 0.75-1.758-0.75-0.727-1.781zM6.516 5.484q0-1.031 0.727-1.758t1.758-0.727 1.758 0.727 0.727 1.758-0.727 1.781-1.758 0.75-1.758-0.75-0.727-1.781zM2.016 9.516q0-1.031 0.727-1.781t1.758-0.75 1.758 0.75 0.727 1.781-0.727 1.758-1.758 0.727-1.758-0.727-0.727-1.758z"></path>
</symbol>
<symbol id="icon-bolt" viewBox="0 0 24 24">
<title>bolt</title>
<path d="M11.016 21h-1.031l1.031-6.984h-3.516q-0.75 0-0.375-0.656 0.141-0.234 0.047-0.141 2.391-4.172 5.813-10.219h1.031l-1.031 6.984h3.516q0.656 0 0.422 0.656z"></path>
</symbol>
<symbol id="icon-paper-plane" viewBox="0 0 28 28">
<title>paper-plane</title>
<path d="M27.563 0.172c0.328 0.234 0.484 0.609 0.422 1l-4 24c-0.047 0.297-0.234 0.547-0.5 0.703-0.141 0.078-0.313 0.125-0.484 0.125-0.125 0-0.25-0.031-0.375-0.078l-7.078-2.891-3.781 4.609c-0.187 0.234-0.469 0.359-0.766 0.359-0.109 0-0.234-0.016-0.344-0.063-0.391-0.141-0.656-0.516-0.656-0.938v-5.453l13.5-16.547-16.703 14.453-6.172-2.531c-0.359-0.141-0.594-0.469-0.625-0.859-0.016-0.375 0.172-0.734 0.5-0.922l26-15c0.156-0.094 0.328-0.141 0.5-0.141 0.203 0 0.406 0.063 0.562 0.172z"></path>
</symbol>
</defs>
</svg>
