<?xml version="1.0" standalone="no"?>
<!DOCTYPE svg PUBLIC "-//W3C//DTD SVG 20010904//EN"
 "http://www.w3.org/TR/2001/REC-SVG-20010904/DTD/svg10.dtd">
<svg version="1.0" xmlns="http://www.w3.org/2000/svg"
 width="260.000000pt" height="260.000000pt" viewBox="0 0 260.000000 260.000000"
 preserveAspectRatio="xMidYMid meet">
<metadata>
Created by potrace 1.11, written by Peter Selinger 2001-2013
</metadata>
<g transform="translate(0.000000,260.000000) scale(0.100000,-0.100000)"
fill="#000000" stroke="none">
<path d="M1197 2038 c-103 -8 -300 -53 -406 -93 -142 -53 -325 -164 -456 -279
-77 -67 -191 -190 -232 -252 -15 -21 -30 -41 -33 -44 -17 -12 -60 -104 -66
-139 -11 -71 32 -154 162 -311 229 -277 559 -468 913 -530 79 -13 144 -17 258
-15 83 2 155 5 160 8 5 3 29 8 53 12 56 8 212 52 265 75 156 67 245 118 365
206 150 112 331 315 396 445 47 92 22 168 -104 327 -147 186 -329 336 -529
436 -90 44 -212 93 -253 101 -13 2 -37 9 -54 14 -49 16 -144 31 -231 37 -44 3
-84 6 -90 8 -5 1 -58 -2 -118 -6z m147 -223 c41 -41 26 -99 -31 -114 -21 -6
-45 -11 -54 -11 -35 0 -109 -33 -149 -67 -70 -60 -95 -111 -115 -236 -5 -31
-12 -41 -37 -51 -83 -35 -117 32 -83 164 39 150 174 286 318 320 57 14 134 11
151 -5z m-617 -117 c-61 -138 -67 -162 -72 -283 -5 -116 14 -207 65 -311 81
-163 240 -293 415 -339 17 -5 37 -10 45 -12 50 -13 202 -8 270 9 223 55 402
222 473 443 41 131 27 332 -32 456 -12 23 -19 44 -17 47 7 6 93 -47 175 -108
123 -92 286 -264 346 -366 18 -32 18 -32 -11 -70 -16 -22 -35 -45 -41 -52 -7
-7 -13 -17 -13 -22 0 -4 -53 -62 -117 -127 -230 -234 -460 -351 -778 -398 -48
-7 -235 -8 -267 -1 -13 3 -41 7 -63 10 -75 10 -222 55 -306 94 -77 35 -217
116 -229 131 -3 3 -23 19 -45 35 -103 75 -343 350 -332 379 2 7 32 49 65 93
100 136 264 286 407 372 55 34 70 38 62 20z"/>
</g>
</svg>
